<svg width="12" height="12" viewBox="0 0 12 12" fill="none" xmlns="http://www.w3.org/2000/svg">
<circle cx="6" cy="6" r="6" fill="#FF1744"/>
<path d="M6.844 5.346C7.462 5.406 7.933 5.598 8.257 5.922C8.581 6.24 8.743 6.648 8.743 7.146C8.743 7.506 8.653 7.833 8.473 8.127C8.293 8.415 8.023 8.646 7.663 8.82C7.309 8.988 6.874 9.072 6.358 9.072C5.908 9.072 5.476 9.006 5.062 8.874C4.648 8.736 4.309 8.547 4.045 8.307L4.459 7.596C4.675 7.8 4.951 7.965 5.287 8.091C5.623 8.211 5.98 8.271 6.358 8.271C6.826 8.271 7.189 8.172 7.447 7.974C7.711 7.776 7.843 7.503 7.843 7.155C7.843 6.807 7.714 6.537 7.456 6.345C7.198 6.153 6.808 6.057 6.286 6.057H5.782V5.427L7.366 3.483H4.333V2.7H8.491V3.312L6.844 5.346Z" fill="white"/>
</svg>
